# xmcd
#
# Track frame offsets: 
#        150
#        14763
#        41482
#        59525
#        81625
#        104718
#        119327
#        134517
#        144996
#        166046
#        185377
#        198568
#
# Disc length: 2929 seconds
#
# Revision: 0
# Processed by: cddbd v1.5.2PL0 Copyright (c) Steve Scherf et al.
# Submitted via: ExactAudioCopy v1.0b4
#
DISCID=b30b6f0c
DTITLE=Eddie Taylor Jr - Stop Breaking Down
DYEAR=2015
DGENRE=Blues
TTITLE0=I'm A King Bee
TTITLE1=Ghetto Woman
TTITLE2=Kiddio
TTITLE3=Baby What You Want Me To Do
TTITLE4=The Sky Is Crying
TTITLE5=I Got To Find My Baby
TTITLE6=Baby Please Come Home
TTITLE7=32-20 Blues
TTITLE8=You Gotta Pay The Price
TTITLE9=Low Down Dirty Shame
TTITLE10=Whiskey Headed Woman
TTITLE11=Stop Breaking Down
EXTD=
EXTT0=
EXTT1=
EXTT2=
EXTT3=
EXTT4=
EXTT5=
EXTT6=
EXTT7=
EXTT8=
EXTT9=
EXTT10=
EXTT11=
PLAYORDER=
